<svg xmlns:xlink="http://www.w3.org/1999/xlink" xmlns="http://www.w3.org/2000/svg" viewBox="0 0 315 96.04980436861561" preserveAspectRatio="xMidYMid meet" class="css-116ckqy" id="gfcheedb" width="315"  height="96.04980436861561" ><defs id="SvgjsDefs1001"></defs><g id="SvgjsG1007" featurekey="symbolContainer" transform="matrix(0.5079872117993847,0,0,0.5079872117993847,0.00017755252182433554,0.00008762568181439753)" fill="#DC143C"><path xmlns="http://www.w3.org/2000/svg" d="M17.914 148.907zM22.657 154.94a90.586 90.586 0 0 0 5.861 6.251c6.914 6.805 15.159 12.525 24.004 16.851 3.259 1.526 6.265 3.107 9.787 4.468.88.338 1.779.7 2.724 1.026.953.302 1.941.604 2.974.903 1.027.321 2.122.549 3.267.786 1.146.23 2.336.493 3.614.624a91.24 91.24 0 0 1-18.434-5.99 93.833 93.833 0 0 1-16.873-9.842c-10.548-7.727-19.57-17.648-26.16-28.989-.272-.339-.685-.985-1.18-1.808l-.796-1.348-.803-1.551c-.534-1.076-1.149-2.168-1.62-3.226a71.281 71.281 0 0 0-1.326-2.748c2.048 5.101 4.412 9.563 7.059 13.806a93.473 93.473 0 0 0 3.869 5.697c-.192-.259-.392-.511-.583-.771a95.012 95.012 0 0 0 4.6 5.841l.016.02zM18.039 149.078l-.125-.17.125.17zM1.335 106.042l-.483-3.875c.256 2.365.553 5.008 1.096 7.654l-.327-1.879a23.961 23.961 0 0 1-.286-1.9zM85.812 185.575c6.652.673 13.628.472 20.461-.609 6.837-1.077 13.524-2.987 19.741-5.449-11.45 4.503-23.602 6.506-35.49 6.171-1.591-.025-3.159 0-4.712-.113z" fill="#DC143C"></path><path xmlns="http://www.w3.org/2000/svg" d="M46.426 171.967l-.259-.165c.087.055.172.111.259.165zM46.167 171.802zM43.653 170.135zM56.077 177.284A83.837 83.837 0 0 0 73.2 183.1c-9.688-2.21-18.805-6.109-26.774-11.133 3.06 1.947 6.277 3.749 9.651 5.317zM177.002 107.094c.098-1.58.296-3.238.346-4.027.594-5.071.77-9.401.745-13.745-.11-.783-.425-2.25-.55-3.918-.153-1.672-.378-3.309-.568-4.924-.289-1.601-.538-3.186-.854-4.74 2.275 11.617 2.237 23.279.144 34.282a94.97 94.97 0 0 1 .737-2.928z" fill="#DC143C"></path><path xmlns="http://www.w3.org/2000/svg" d="M.887 83.482c.848-6.9 2.653-13.626 4.37-18.107l-.695 3.28c.429-.961 1.122-3.194 2.067-5.557l.682-1.802.753-1.747c.5-1.131.92-2.203 1.363-3.025-.303.771-.595 1.602-.947 2.436-.345.837-.732 1.687-1.101 2.542l1.514-3.409A111.863 111.863 0 0 0 4.954 69.8c-1.133 4.352-2.029 8.926-2.511 13.032-.14 1.024-.189 2.024-.28 2.978-.067.954-.183 1.864-.192 2.724-.042 1.719-.1 3.224-.071 4.428.105 2.409.25 3.61.459 2.939.411-1.333.403-8.188 1.837-16.767.767-4.276 1.868-8.966 3.362-13.561 1.483-4.599 3.427-9.058 5.44-12.992l-.592 1.292-.545 1.331-1.116 2.691-1.024 2.78-.521 1.402c-.153.476-.308.954-.461 1.434-1.32 3.807-2.307 7.816-3.167 11.857l-.559 3.052c-.205 1.014-.292 2.046-.444 3.067-.318 2.041-.434 4.097-.611 6.129-.199 4.074-.239 8.098.13 11.946-.015-.914-.03-1.726-.017-2.512l.115-2.355c.048-.809.039-1.667.115-2.65.07-.983.134-2.091.19-3.402.391-6.608 1.572-13.15 3.408-19.481 1.75-6.358 3.814-11.957 6.889-17.03l.801-1.526c.542-1.024.993-2.034 1.566-3.064.653-1.13 1.278-1.976 1.784-2.751.521-.767.963-1.441 1.469-2.095l3.682-5.082c.075-.009-.022.185-.2.473a28.962 28.962 0 0 1 1.959-2.49c.755-.875 1.488-1.803 2.109-2.569.146-.007.288-.011.623-.251 8.65-9.197 19.295-16.692 31.291-21.417l2.667-1.039 2.7-.899 1.343-.448 1.36-.38 2.71-.753c1.55-.373 3.12-.751 4.721-1.091l2.437-.426c.819-.141 1.642-.3 2.484-.378 1.674-.201 3.134-.625 3.921-.729 4.369-.249 8.73-.199 13.849.216.397.007 1.015.043 1.732.082.717.041 1.537.061 2.332.134.932.21 1.927.418 2.971.621 6.369.988 12.527 2.754 18.386 5.103l-.007-.028 2.244.894 2.29 1.058c1.571.684 3.11 1.559 4.7 2.383.798.407 1.554.904 2.338 1.354.77.474 1.576.894 2.32 1.412 1.508 1.002 3.037 1.961 4.446 3.032a99.912 99.912 0 0 1 6.6 5.198c.046.042.094.081.14.122l.042.038 1.457 1.322 1.394 1.391 1.395 1.392c.462.467.89.967 1.337 1.449-.216-.35-.208-.491-.2-.63-.689-.66-1.504-1.441-2.309-2.21 1.343 1.222 2.515 2.327 3.477 3.229.371.474.776.94 1.16 1.449l1.186 1.566 1.261 1.629 1.255 1.752c2.226 2.838 4.191 5.874 6.057 8.97.864 1.588 1.817 3.131 2.586 4.774l1.213 2.436 1.092 2.497c.314.533.192.022.231-.068 1.225 2.962 2.21 6.042 3.102 9.146a88.212 88.212 0 0 1 3.408 17.211c.225 1.378.321 2.772.52 4.153l-.123 2.924c-.001 1.103.057 2.206.01 3.311l-.128 3.326c-.016.75-.124 1.569-.187 2.459-.084.888-.128 1.846-.256 2.856l-.412 3.192c-.132 1.119-.387 2.269-.583 3.471a90.635 90.635 0 0 1-4.312 15.482c-.242.826-.427 1.486-.592 1.855-.627 1.501-1.296 2.954-1.942 4.385-.723 1.394-1.386 2.788-2.127 4.108a86.09 86.09 0 0 1-7.949 12.379c-.336.439-.649.885-.987 1.297l-.998 1.206c-.66.779-1.25 1.558-1.876 2.234-1.251 1.352-2.301 2.606-3.286 3.549-1.128 1.178-1.027 1.233-.246.665a35.07 35.07 0 0 0 1.608-1.262l2.122-1.914c.776-.677 1.519-1.441 2.235-2.161.708-.725 1.416-1.386 1.962-1.984 1.101-1.191 1.824-1.926 1.67-1.599-1.777 3.345-5.013 7.471-9.743 12.035-2.413 2.227-5.128 4.647-8.339 6.98-1.566 1.221-3.307 2.338-5.082 3.558-1.834 1.123-3.708 2.353-5.757 3.445-4.484 2.442 3.365-1.475 3.577-1.512a22.87 22.87 0 0 1-2.377 1.64c-1.478.786-2.943 1.597-4.474 2.273-.895.411-1.774.855-2.679 1.239l-2.729 1.122 1.444-.568c2.952-1.173 5.711-2.555 8.202-3.922-.936.566-1.96 1.221-3.082 1.812-1.203.622-2.448 1.302-3.697 1.909l-3.625 1.686c12.968-4.711 24.885-12.507 34.319-22.67 4.723-5.066 8.935-10.631 12.369-16.651a93.904 93.904 0 0 0 8.288-18.999c-3.154 9.93-8.071 19.052-13.981 26.765 10.744-14.507 17.15-32.293 17.999-50.636-.001 1.011-.101 2.018-.168 3.025-.083 1.007-.123 2.018-.241 3.022-.257 2.005-.441 4.021-.827 6.009-.624 4-1.636 7.931-2.782 11.815 2.262-7.021 3.613-14.424 4.145-21.869.554-7.451.092-14.947-1.057-22.211 1.974 9.622 2.301 20.524.619 31.298 1.182-6.949 1.482-14.112 1.028-21.214-.102-2.713-.422-5.407-.685-7.901-.377-2.476-.662-4.762-1.027-6.611 1.445 6.826 2.015 12.648 2.293 18.136-.267-11.977-2.748-24.112-7.62-35.511 2.659 6.191 4.842 12.851 6.175 19.698 1.34 6.84 1.897 13.838 1.58 20.57-.015-.788.018-1.575-.028-2.366l-.107-2.391c.287 10.85-1.384 21.604-4.696 31.717-1.662 5.056-3.715 9.969-6.2 14.644a95.521 95.521 0 0 1-8.56 13.316c3.673-4.29 7.551-10.354 10.646-17.015 3.081-6.675 5.368-13.894 6.941-20.199-2.314 11.322-6.907 22.494-13.571 32.471-6.646 9.985-15.351 18.764-25.423 25.502-10.06 6.759-21.474 11.437-33.187 13.748a94.608 94.608 0 0 1-17.657 1.809 94.462 94.462 0 0 1-17.361-1.515l3.005.571c1.002.19 2.018.295 3.026.445 2.016.324 4.055.446 6.087.633 4.073.229 8.168.306 12.25-.005 4.089-.217 8.152-.827 12.196-1.572 2.006-.456 4.036-.829 6.017-1.414.994-.278 2-.521 2.987-.83l2.955-.958c-1.492.462-3.062 1.074-4.739 1.523l-2.101.618a91.772 91.772 0 0 0 12.91-4.496 89.46 89.46 0 0 0 5.651-2.705 96.653 96.653 0 0 1-10.714 4.872 98.407 98.407 0 0 1-21.66 5.382c-1.11.176-2.122.231-3.029.326l-2.428.24c-1.429.113-2.484.164-3.222.245-1.477.147-1.687.284-1.099.397.587.113 1.971.203 3.673.251 1.697-.01 3.71-.101 5.541-.268 18.397-1.887 35.288-9.107 48.824-19.916 13.545-10.811 23.919-25.172 29.701-41.467.363-.946.642-1.922.944-2.89.293-.971.617-1.932.882-2.912.491-1.97 1.072-3.917 1.448-5.917l.619-2.985.487-3.012.241-1.507.172-1.517.342-3.034c.698-8.114.422-16.315-.812-24.363-.66-4.554-1.82-9.961-3.315-14.777l-1.15-3.484c-.4-1.107-.825-2.151-1.203-3.133l-.557-1.415-.571-1.271-.981-2.124c-3.134-6.359-7.072-12.424-11.682-18.065-4.605-5.643-9.896-10.868-15.861-15.418l-2.244-1.703-2.327-1.608-1.166-.806-1.203-.756-2.417-1.508c-3.295-1.904-6.67-3.739-10.228-5.261-3.521-1.598-7.206-2.895-10.957-4.055-1.895-.52-3.781-1.1-5.724-1.499-.968-.209-1.928-.463-2.907-.638l-2.944-.521C100.363.01 93.04-.285 85.724.265 78.412.83 71.069 2.218 64.028 4.614l-2.635.913c-.881.297-1.73.682-2.597 1.019-.858.359-1.735.673-2.577 1.069l-2.532 1.173c-.852.376-1.675.808-2.496 1.245l-2.469 1.297-2.402 1.412c-.8.472-1.606.933-2.372 1.458l-2.324 1.528c-.782.497-1.506 1.078-2.261 1.612-.741.554-1.51 1.07-2.226 1.654l-2.157 1.737c-.729.565-1.417 1.178-2.103 1.792l-2.063 1.83-1.971 1.919c-.656.639-1.319 1.271-1.93 1.951-5.031 5.298-9.451 11.078-13.066 17.194A99.518 99.518 0 0 0 5.18 64.379C.805 77.299-.45 90.402.134 102.237c-.126-4.872-.147-11.859.753-18.755zm141.132 90.446a96.807 96.807 0 0 0 8.765-6.389c-2.84 2.339-5.758 4.499-8.765 6.389zm40.217-54.282c-.299.901-.552 1.791-.882 2.641l-.957 2.523-.466 1.248-.513 1.231a108.54 108.54 0 0 0-.997 2.501 97.307 97.307 0 0 1-6.587 13.35c-2.521 4.275-5.443 8.281-8.565 12.04-1.542 1.899-3.222 3.66-4.874 5.421l-2.581 2.523c-.847.848-1.774 1.604-2.652 2.404-.736.64-1.478 1.266-2.225 1.882a90.696 90.696 0 0 0 7.896-7.312 89.808 89.808 0 0 1-11.689 10.188c-1.036.722-2.037 1.496-3.113 2.176l-3.247 2.069-3.43 1.949c-1.167.648-2.399 1.224-3.634 1.855a74.206 74.206 0 0 1 2.685-1.508c1.021-.567 2.092-1.237 3.138-1.85 1.054-.601 2.012-1.261 2.808-1.813.796-.552 1.42-1.01 1.745-1.306-.464.315-.936.617-1.406.924a92.477 92.477 0 0 0 1.507-1.015c-.021.023-.065.059-.101.091 10.932-7.466 20.245-17.277 27.223-28.462 7.009-11.175 11.57-23.781 13.46-36.601-.41 5.142-1.352 9.248-2.543 12.851zm-6.654-65.352zm-8.448-12.698a92.37 92.37 0 0 1 7.773 14.352c.25.549.486 1.106.719 1.664 4.963 12.154 7.221 25.192 6.89 38.036.084-4.25-.198-8.498-.669-12.71-.533-4.854-1.518-9.65-2.824-14.341-2.562-9.407-6.723-18.323-12.005-26.451.485.67.996 1.396 1.525 2.166a32.826 32.826 0 0 1 1.59 2.463l-.638-1.109-.689-1.079-1.378-2.156c-.938-1.424-1.955-2.796-2.934-4.192-1.062-1.334-2.069-2.712-3.174-4.011-.836-.953-1.637-1.938-2.485-2.879 2.992 3.155 5.801 6.54 8.299 10.247zM96.886 1.152c1.467.078 2.937.221 4.407.331 1.204.101 2.402.279 3.588.413.356.015.732.039 1.204.092.471.065 1.034.186 1.769.354 5.469.912 10.459 2.283 14.001 3.699 6.798 2.573 13.123 5.774 18.86 9.471 5.739 3.69 10.889 7.887 15.246 12.471 2.008 2.179 1.422 1.704.315.646l1.662 1.764c-.736-.734-1.459-1.478-2.206-2.196l-2.301-2.09c.56.49 1.918 1.663 2.845 2.522-7.389-7.539-16.026-13.799-25.375-18.404-9.356-4.603-19.431-7.446-29.502-8.581 1.618.18 2.412.22 3.168.24-1.085-.127-2.173-.301-3.274-.401-1.479-.097-2.955-.229-4.423-.301l-4.36-.103c1.444-.001 2.907.039 4.376.073z" fill="#DC143C"></path><path xmlns="http://www.w3.org/2000/svg" d="M115.942 184.69l.426-.125c-.446.12-.885.252-1.334.366.304-.076.609-.15.908-.241zM160.424 146.151c4.235-5.587 7.977-12.263 10.366-18.014l-.029.006c-6.061 14.322-15.892 26.66-28.16 35.744a159.12 159.12 0 0 0 6.418-4.703c2.698-2.82 7.213-7.406 11.405-13.033zM35.35 162.846c7.172 6.412 15.821 11.992 25.448 15.751 3.754 1.413 7.585 2.651 11.503 3.523 1.944.502 3.929.812 5.899 1.181.987.175 1.987.272 2.979.412.994.129 1.986.275 2.987.333-4.519-.501-9.005-1.251-13.372-2.44-4.364-1.185-8.642-2.65-12.769-4.449a97.4 97.4 0 0 1-11.894-6.314c-3.786-2.408-7.376-5.097-10.781-7.997zM123.877 174.277l-2.219.871-2.266.756c-1.5.54-3.047.944-4.59 1.373 1.551-.39 3.111-.754 4.624-1.254l2.283-.698 2.23-.815c-.086-.044-.594.055-.062-.233zM97.683 179.965c-1.16.099-2.326.09-3.494.102-1.168.014-2.338.039-3.509-.038l1.576.148c.482.031.916.068 1.295.113 1.381-.118 2.752-.151 4.132-.325zM51.441 169.209c1.341.787 2.765 1.48 4.178 2.244.354.194.996.415 1.801.709-1.721-.739-3.37-1.655-5.046-2.505-.83-.441-1.629-.935-2.443-1.395-.812-.464-1.621-.927-2.389-1.445l.937.626.977.584 1.985 1.182z" fill="#DC143C"></path></g><g id="SvgjsG1008" featurekey="symbolFeature-0" transform="matrix(0.7851543743690446,0,0,0.7851543743690446,7.858765485123593,6.43532478421613)" fill="#DC143C"><path xmlns="http://www.w3.org/2000/svg" d="M35.6655731,24.5674229c-0.5362358-0.7641201-1.311264-1.3222313-2.1146049-1.7764168  c-0.5271149-0.2979965-1.1776199-0.4386425-1.7694111-0.6429348c-0.1081886-0.2712326-0.308712-0.5128536-0.5374279-0.6524563  c-0.7747288-0.4728432-1.545105-0.2223835-2.0459938,0.4841824c-0.137516,0.1940098-0.2012978,0.3875427-0.2117882,0.5757408  c-1.4999237,0.7436295-2.8610783,2.545393-3.8173733,3.5205688c-2.1235447,2.1654491-4.1419392,4.4321423-6.1711235,6.6852303  C14.9423428,37.2643242,10.81602,41.7815857,5.87533,45.3374901c-0.548038,0.394413-0.7855773,1.0469437-0.4379416,1.6702499  c4.6078377,8.2616005,8.195838,17.030262,10.7074919,26.1503105c0.1345348,0.4884567,0.6429348,0.9439392,1.1772022,0.8962555  c2.2221375-0.19841,4.428299-0.1236267,6.6238499,0.2820969c0.2648392,0.0489349,0.5384407,0.0150909,0.7813454-0.0825119  c0.3118095,0.2562408,0.6121159,0.5266342,0.905508,0.8130569c0.9154053,0.893837,2.2731018-0.0194321,2.0403919-1.1877594  c-1.6050129-8.0575027-3.0581436-16.1440926-4.36273-24.2555389c0.0057831-0.0275993,0.0122795-0.0544205,0.0166321-0.0835686  c0.0612164-0.4125671,0.0609779-0.7702446-0.0403557-1.099102c2.6796894-4.4922447,5.5856514-8.8417091,8.7160378-13.0335121  c1.6163979-2.1645241,3.8509331-4.277504,4.9157143-6.7833157C37.6088028,26.9996033,37.0985527,25.1390495,35.6655731,24.5674229z   M20.873127,49.7574997c1.0433826,6.5200729,2.184166,13.0238533,3.4216919,19.5096512  c-1.3569221-4.1990433-2.7137852-8.3981056-4.0707073-12.5971489c-0.8100166-2.5064545-1.619915-5.0129356-2.4298115-7.5193863  C18.8257618,49.3258171,19.8514996,49.528904,20.873127,49.7574997z M27.7649746,37.0914917  c-2.3628731,3.3097458-4.5722523,6.7276115-6.6510906,10.2223244c-0.9371014-0.2030258-1.877779-0.3850403-2.8233452-0.5431519  c0.4863434-0.4994278,0.9727478-0.9988403,1.4590912-1.4982681c1.0199566-1.0473785,2.0399132-2.094738,3.0598698-3.1421165  c1.6829796-1.7281609,3.3699532-3.4526863,5.0559731-5.1781387C27.8321514,36.9987259,27.7982349,37.0448761,27.7649746,37.0914917z   M33.2343292,27.9229946c-4.1145191,4.5283794-8.5621891,8.795393-12.8312149,13.1790867l-3.0599289,3.1421318  c-0.8483448,0.8711433-2.2382908,1.8801498-2.3568516,3.1912041c-0.1182632,1.3080711,0.5475616,2.654995,0.9433002,3.8796158  c0.4974308,1.539505,0.9949207,3.0789909,1.4924126,4.6184959c1.6957951,5.2478638,3.3916492,10.4957161,5.0874462,15.7435951  c-1.4220161-0.1565399-2.8479042-0.2052612-4.2826157-0.1286926c-2.4513903-8.6206207-5.8618765-16.9488792-10.1564732-24.8151703  c4.0388174-3.0556679,7.5772829-6.667347,10.9890804-10.4057541c1.8591824-2.037159,3.6860561-4.1034775,5.5593052-6.1278648  c0.9354324-1.0109119,1.887495-2.006115,2.8560104-2.9853897c0.2696686-0.2727222,2.5101051-2.6885853,2.6925659-2.5881615  c0.4768066,0.2624397,0.9356709,0.1823578,1.2754364-0.0659409c0.6865082,0.263916,1.4010353,0.6044865,1.8701515,1.0430107  c0.0462532,0.3488865,0.2313995,0.6975212,0.5222282,0.9289646C33.8783951,26.9365673,33.7119713,27.3973541,33.2343292,27.9229946z  " fill="#DC143C"></path><path xmlns="http://www.w3.org/2000/svg" d="M73.0252914,24.1311798c-0.6276169-0.4312363-1.2552338-0.8624725-1.8829117-1.2937088  c-0.0929871-0.5477257-0.5929794-0.9884243-1.2097473-1.0443363c-4.2216339-0.3827305-8.4041672-1.0326843-12.5454521-1.9368515  c-1.2399712-0.2707253-1.9032326,1.2132664-1.3014259,1.9705143c-2.2785873,5.0727673-5.022831,9.9094715-7.7659454,14.741333  c-2.7845383,4.904789-5.4719772,9.8573112-7.9844055,14.907608c-4.9976158,10.0457039-9.3445492,20.4179764-13.0539722,31.0061722  c-0.2210865,0.6311188,0.2454662,1.3307419,0.8526363,1.5017014c1.5013542,0.4227524,2.9986534,0.8669968,4.5078735,1.2606201  c0.1834145,0.0478363,0.3654022,0.0793533,0.545475,0.0980148c0.0067978,0.19133,0.0699806,0.3941574,0.2056503,0.5993271  c1.400795,2.1182251,4.0199814,1.6098175,5.6094933,0.0168839c0.9328728-0.9349213,1.6224213-2.1872025,2.3382568-3.2854996  c0.9165344-1.4062958,1.7970085-2.8363876,2.6824875-4.2623596c3.5347137-5.6926193,6.9777451-11.4420624,10.339592-17.2384148  c6.72369-11.5928841,13.0861549-23.3946457,19.1003304-35.3707504C73.7789764,25.172699,73.6002655,24.526247,73.0252914,24.1311798  z M30.0339622,82.0084305c3.6057625-10.1477661,7.815834-20.0664368,12.6131096-29.7093964  c4.9545784-9.9592285,11.1299934-19.318428,15.6587296-29.4832153c0.0386887-0.0869236,0.0669403-0.1731472,0.0862541-0.2581482  c3.1562576,0.6362133,6.3387413,1.1253586,9.5393486,1.4749603C61.97612,34.3121643,56.0208397,44.591671,50.0654984,54.8712044  c-3.1761665,5.4825287-6.3523941,10.9650612-9.5286217,16.4475899l-4.64217,8.0129089  c-0.4072456,0.7029037-0.8144302,1.4057922-1.221611,2.1086731c-0.2997131,0.5173416-0.6168289,1.5799484-1.3820801,1.4495239  C32.2032852,82.7045364,31.1111431,82.3485107,30.0339622,82.0084305z M54.3528214,56.2929344  c-3.0122452,5.2784157-6.1020393,10.5124702-9.257164,15.7066917c-1.5318718,2.521843-3.0818672,5.0327835-4.6485481,7.5331573  c-0.4161263,0.6640778-3.8736458,6.7977829-4.945816,5.1764984c-0.0179443-0.027153-0.0371971-0.0515594-0.0562134-0.0765533  c0.1124802-0.1017532,0.2198372-0.213829,0.3208733-0.3372498c0.9018707-1.1013184,1.5252571-2.5029907,2.2369766-3.7314606  l2.6875572-4.6390762c3.339077-5.7636795,6.678215-11.5273666,10.0172882-17.2910423  c6.4757233-11.1779022,12.9515038-22.355793,19.427227-33.5336838c0.2352142,0.1615982,0.4704285,0.323225,0.7056427,0.4848232  C65.6084671,35.9604073,60.1122894,46.2005844,54.3528214,56.2929344z" fill="#DC143C"></path><path xmlns="http://www.w3.org/2000/svg" d="M94.0749283,62.7201805c-0.633812-1.8909988-1.2395477-3.7884178-1.7939072-5.7043915  c-1.0656738-3.6828194-1.9334564-7.4214973-2.6422577-11.188694c-0.3403015-1.8084679-0.6285706-3.6263885-0.8853607-5.4484482  c-0.2455826-1.7428246-0.2433167-3.5931702-1.0102386-5.2050095c-0.6251144-1.3138542-2.2631454-1.9417381-3.5037766-2.4656181  c-1.7526016-0.7400818-3.5696411-1.2486744-5.4455719-1.5586834c-2.1939392-0.3625526-6.5610199-0.907402-6.6951981,2.4003811  c-0.0043488,0.1080093,0.0040512,0.2078667,0.021637,0.3010063c-0.0783844,0.1643982-0.1230927,0.3416595-0.1137924,0.5148659  c0.2324142,4.3325539,0.8097763,8.6361351,1.7229156,12.8776665c0.4766312,2.2136688,1.0693741,4.4011726,1.737999,6.5640907  c0.6612396,2.1391449,1.5665665,4.1929321,2.2404404,6.3225594c0.2446289,0.7732201-1.1569366,2.1225739-1.5662079,2.6794624  c-0.6377487,0.8677025-1.2831879,1.7297173-1.9316635,2.5894279c-1.4195709,1.8820114-2.8715744,3.7391968-4.344017,5.5801239  c-2.8826523,3.6041718-5.8705177,7.1236343-8.9407616,10.5691528c-0.5859489,0.6575699-0.4001503,1.8125381,0.538681,2.0403976  c2.3294907,0.5653992,4.6590385,1.1307983,6.9885292,1.6961823c0.4060516,0.0985413,0.8984756,0.0139923,1.1877594-0.313942  c0.0500717-0.0567474,0.1013336-0.1123962,0.1514587-0.1691132c2.3320541,1.0704193,4.8834076-0.2484131,6.8041077-1.9393692  c2.9993668-2.6406479,5.8748703-5.4370041,8.8062897-8.1530533c1.4311905-1.3260269,2.8623886-2.6520615,4.2935791-3.9780884  c1.3315887-1.2337723,2.9937668-2.4235687,4.0333328-3.9271622C94.6319733,65.4978104,94.5630646,64.1766052,94.0749283,62.7201805z   M71.8806915,72.3449478c1.4102097-1.7631531,2.7929459-3.5483017,4.1589279-5.3459091  c0.7445679-0.9798813,1.4795914-1.9670258,2.2102127-2.9573746c0.5997772-0.8130531,1.5289536-1.7448654,1.7854462-2.750843  c0.5039902-1.9766693-0.8693848-4.1506004-1.506958-5.9816017c-0.79422-2.281044-1.4605179-4.6052437-2.037529-6.9500694  c-1.064003-4.324131-1.7072983-8.7380028-1.9901962-13.1796112c0.2269821-0.1326714,0.4391327-0.2948341,0.6438828-0.4859848  c0.2452316,0.150898,0.5591888,0.202549,0.9250031,0.0853157c2.3294907-0.7466545,3.7989578,1.6152496,4.4109497,3.4964409  c0.7901688,2.4289474,1.1737518,5.0288048,1.7781754,7.5102844c1.2360382,5.0743752,2.6758194,10.0982475,4.2819595,15.0675049  c0.3553238,1.0994759,0.9620209,2.1350212,0.0468521,3.0848923c-0.8331451,0.8646812-1.7487259,1.6618614-2.6135788,2.4953346  c-1.8978729,1.8289337-3.7659378,3.6885605-5.6126556,5.5690384c-3.2965164,3.3568649-6.4983749,6.8058167-9.6243515,10.3218536  c-0.1254196,0.1000214-0.2331848,0.2195358-0.3154449,0.3518677c-0.021698,0.0245285-0.0438766,0.0486984-0.0656281,0.0732422  c-1.4401398-0.3495407-2.8803329-0.6990662-4.3204727-1.0486069C66.7195663,78.6406403,69.3379211,75.5241394,71.8806915,72.3449478  z M91.3438034,65.8593445c-2.1367798,2.2964706-4.6513519,4.3281555-6.952652,6.4603729  c-2.3852844,2.2100525-4.7706299,4.4201202-7.1559677,6.6301651c-1.1715469,1.0855026-3.6168518,4.0295486-5.6798325,3.8822327  c3.3003311-3.6686249,6.6863708-7.2585144,10.1670761-10.7572784c2.0775909-2.0883484,4.1923141-4.1395569,6.3332062-6.1628876  c0.7399139-0.6993103,1.4602814-1.5545807,1.5012894-2.6263695c0.0526962-1.3788147-0.539093-2.6949348-0.9530182-3.9853935  c-1.8368835-5.7267303-3.4110184-11.5365372-4.7557831-17.3978615c-0.5755157-2.5083771-0.9097443-5.3220482-2.5602341-7.4025116  c-0.092392-0.1164322-0.1891937-0.2291069-0.2890396-0.3388443c0.2986984,0.0744209,0.5194244,0.1336403,0.6212921,0.1652641  c1.2545166,0.3894501,2.7828751,0.8683434,3.7805405,1.7622871c0.8959122,0.8028221,0.7469482,3.0661316,0.892334,4.158886  c0.8039322,6.0400734,2.0679321,12.0065918,3.7615204,17.8593483c0.3836365,1.3257484,0.7976761,2.6425095,1.226799,3.9541435  C91.7368011,63.4529762,92.4787979,64.6395187,91.3438034,65.8593445z" fill="#DC143C"></path></g><g id="SvgjsG1009" featurekey="nameFeature-0" transform="matrix(2.0786788640820575,0,0,2.0786788640820575,112.87136831464251,-4.907398862603994)" fill="#DC143C"><path d="M17.58 37.7548 c-0.5632 0 -1.0184 -0.45668 -1.0184 -1.0199 l0 -8.3916 l-3.3784 -1.9492 c-0.4048 -0.23359 -0.5112 -0.6608 -0.51044 -0.8884 c0.0016016 -0.36359 0.1948 -0.6964 0.5096 -0.878 l3.3796 -1.9516 l0 -7.8028 l-2.864 -1.6556 l-6.7476 3.9004 l0 2.1336 l6.232 -3.6044 c0.15559 -0.089608 0.33238 -0.13723 0.512 -0.13723 c0.5504 0 1.0184 0.452 1.0184 1.0196 l0.004414 4.268 c0.00078124 0.5624 -0.21442 0.934 -0.7012 1.2156 l-3.6772 2.1256 c-0.15359 0.092384 -0.3332 0.14559 -0.5252 0.14559 c-0.5632 0 -1.02 -0.4568 -1.02 -1.02 c0 -0.38398 0.21238 -0.7184 0.52596 -0.8924 l3.358 -1.9408 l0 -2.1336 l-6.2416 3.6064 c-0.15559 0.089608 -0.33238 0.13723 -0.512 0.13723 c-0.6728 0 -1.0208 -0.5924 -1.0208 -1.0252 l0.0048048 -4.2644 c0.00078124 -0.5624 0.21438 -0.934 0.70116 -1.2156 l7.3844 -4.2684 c0.24359 -0.14078 0.4728 -0.21117 0.70204 -0.21117 s0.45844 0.070392 0.70204 0.21117 l3.5008 2.0236 c0.4872 0.2816 0.7016 0.6532 0.7016 1.2156 l0 8.5368 c0 0.5624 -0.21442 0.934 -0.7012 1.2156 l-2.1644 1.2508 l2.1644 1.2508 c0.4868 0.2816 0.7012 0.6532 0.7012 1.2156 l0 8.7584 c0 0.5632 -0.4568 1.02 -1.02 1.02 z M5.9304 40.00011719 l0.0020312 0.000039062 c-0.5632 0 -1.02 -0.4568 -1.02 -1.02 c0 -0.38398 0.21238 -0.7184 0.52596 -0.8924 l3.358 -1.9408 l-0.0048048 -8.3956 c0 -0.5504 0.4572 -1.0152 1.0192 -1.0152 c0.1732 0 0.3484 0.043984 0.5088 0.1368 l3.6972 2.1332 c0.4868 0.2816 0.7012 0.6532 0.7012 1.2156 l0 8.7584 c0 0.5632 -0.4568 1.02 -1.02 1.02 s-1.02 -0.4568 -1.02 -1.02 l0 -8.3916 l-1.844 -1.066 l0 6.9908 c0 0.5624 -0.21442 0.934 -0.7012 1.2156 l-3.6772 2.1256 c-0.15359 0.092384 -0.3332 0.14559 -0.5252 0.14559 z M2.0428 37.7562 l0.0020312 0.0016406 c-0.6728 0 -1.0208 -0.5924 -1.0208 -1.0252 l0.0048048 -22.224 c0 -0.5624 0.21442 -0.934 0.7012 -1.2156 l3.6772 -2.1256 c0.15359 -0.092384 0.3332 -0.14559 0.5252 -0.14559 c0.5632 0 1.02 0.4568 1.02 1.02 c0 0.38398 -0.21238 0.7184 -0.52596 0.8924 l-3.358 1.9408 l0 20.094 l1.844 -1.0656 l0 -8.3916 c0 -0.5632 0.4568 -1.02 1.02 -1.02 s1.02 0.4568 1.02 1.02 l0 8.7584 c0 0.5624 -0.21442 0.934 -0.7016 1.2112 l-3.696 2.1388 c-0.15559 0.089608 -0.33238 0.1368 -0.512 0.1368 z M29.4528 40 c-0.5632 0 -1.0208 -0.45796 -1.0208 -1.0212 c0 -0.38398 0.21238 -0.7184 0.52596 -0.8924 l3.358 -1.9408 l0 -12.293 l-2.864 -1.6552 l-6.7476 3.9004 l0 3.9016 c0 0.5632 -0.4568 1.02 -1.02 1.02 s-1.02 -0.4568 -1.02 -1.02 l0 -4.2684 c0 -0.5624 0.21442 -0.934 0.7012 -1.2156 l7.3844 -4.2684 c0.24359 -0.14078 0.4728 -0.21117 0.70204 -0.21117 s0.45844 0.070392 0.70204 0.21117 l3.5008 2.0236 c0.4872 0.2816 0.7016 0.6532 0.7016 1.2156 l0 13.027 c0 0.5624 -0.21442 0.934 -0.7012 1.2156 l-3.6772 2.1256 c-0.15359 0.092384 -0.3332 0.14559 -0.5252 0.14559 z M21.6784 39.9988281 l0.0028516 0.00046876 c-0.6728 0 -1.0208 -0.5924 -1.0208 -1.0252 l0.0048048 -4.2644 c0.00078124 -0.5624 0.21438 -0.934 0.70116 -1.2156 l3.6772 -2.1256 c0.15359 -0.092384 0.3332 -0.14559 0.5252 -0.14559 c0.5632 0 1.02 0.4568 1.02 1.02 c0 0.38398 -0.21238 0.7184 -0.52596 0.8924 l-3.358 1.9408 l0 2.1336 l5.7276 -3.3108 l0 -6.6236 l-2.3388 1.352 c-0.15359 0.092384 -0.3332 0.14559 -0.5252 0.14559 c-0.5632 0 -1.02 -0.4568 -1.02 -1.02 c0 -0.38398 0.21558 -0.7132 0.52636 -0.89244 l3.8624 -2.2344 c0.15559 -0.089608 0.33238 -0.13723 0.512 -0.13723 c0.5504 0 1.0184 0.452 1.0184 1.0196 l0.004414 8.758 c0 0.5624 -0.2148 0.934 -0.7016 1.2112 l-7.58 4.384 c-0.15559 0.089608 -0.33238 0.13723 -0.512 0.13723 z M41.284 39.963594 c-0.22922 0 -0.4576 -0.069608 -0.70116 -0.21039 l-3.5008 -2.0236 c-0.4868 -0.2816 -0.7012 -0.6532 -0.7012 -1.2156 l0 -13.027 c0 -0.5624 0.21442 -0.934 0.7012 -1.2156 l3.6772 -2.1256 c0.15359 -0.092384 0.3332 -0.14559 0.5252 -0.14559 c0.5632 0 1.02 0.4568 1.02 1.02 c0 0.38398 -0.21238 0.7184 -0.52596 0.8924 l-3.358 1.9408 l0 12.293 l2.864 1.6556 l6.7476 -3.9004 l0 -3.9016 c0 -0.5632 0.4568 -1.02 1.02 -1.02 s1.02 0.4568 1.02 1.02 l0 4.2684 c0 0.5624 -0.21442 0.934 -0.7016 1.2116 l-7.3844 4.2724 c-0.24359 0.14078 -0.4728 0.21117 -0.70204 0.21117 z M41.2792 35.5116 l0.0036719 0.00082032 c-0.6728 0 -1.0208 -0.5924 -1.0208 -1.0252 l0.0048048 -8.7544 c0 -0.5624 0.21398 -0.934 0.7008 -1.2156 l7.5708 -4.378 c0.15559 -0.089608 0.33238 -0.13723 0.512 -0.13723 c0.5504 0 1.0184 0.452 1.0184 1.0196 l0.004414 4.4896 c0 0.5632 -0.4572 1.02 -1.0204 1.02 s-1.02 -0.4568 -1.02 -1.02 l0 -2.7224 l-5.7276 3.3108 l0 6.6236 l1.844 -1.066 l0 -3.9016 c0 -0.5632 0.4568 -1.02 1.02 -1.02 s1.02 0.4568 1.02 1.02 l0 4.2684 c0 0.5624 -0.21442 0.93436 -0.7016 1.2156 l-3.6964 2.1348 c-0.15559 0.089608 -0.33238 0.13723 -0.512 0.13723 z M68.656 37.7548 c-0.5632 0 -1.0192 -0.45684 -1.0192 -1.02 l0 -11.702 l-9.6116 5.556 l0 3.9016 c0 0.5632 -0.4568 1.02 -1.02 1.02 s-1.02 -0.4568 -1.02 -1.02 l0 -4.2684 c0 -0.5624 0.21442 -0.934 0.7012 -1.2156 l11.455 -6.6232 c0.15559 -0.089608 0.33238 -0.13723 0.512 -0.13723 c0.5504 0 1.0184 0.452 1.0184 1.0196 l0.004414 13.47 c0 0.5632 -0.4568 1.02 -1.02 1.02 z M64.77199999999999 39.999960938 c-0.5632 0 -1.0196 -0.4572 -1.0196 -1.0204 l0 -7.2124 l-2.3388 1.352 c-0.1532 0.092384 -0.33281 0.14559 -0.5248 0.14559 c-0.5632 0 -1.02 -0.4568 -1.02 -1.02 c0 -0.38398 0.21558 -0.71276 0.52596 -0.8924 l3.8624 -2.2344 c0.15559 -0.089608 0.33238 -0.13723 0.512 -0.13723 c0.5504 0 1.0184 0.452 1.0184 1.0196 l0.004414 8.9796 c0 0.5632 -0.4568 1.02 -1.02 1.02 z M57.004799999999996 39.99957032 c-0.19199 0 -0.37199 -0.052032 -0.5252 -0.14441 l-3.6772 -2.1256 c-0.4868 -0.2816 -0.7012 -0.6532 -0.7012 -1.2156 l0 -22.007 c0 -0.5624 0.21442 -0.934 0.7012 -1.2156 l3.6772 -2.1256 c0.15359 -0.092384 0.3332 -0.14559 0.5252 -0.14559 c0.5632 0 1.02 0.4568 1.02 1.02 c0 0.38398 -0.21238 0.7184 -0.52596 0.8924 l-3.358 1.9408 l0 21.273 l3.358 1.9408 c0.31359 0.17398 0.52596 0.5084 0.52596 0.8924 c0 0.5632 -0.4568 1.02 -1.02 1.02 z M57.0044 26.531 c-0.5632 0 -1.0188 -0.45684 -1.0188 -1.02 l0 -8.7584 c0 -0.5624 0.21442 -0.934 0.7012 -1.2156 l3.6868 -2.1332 c0.15559 -0.089608 0.33238 -0.13723 0.512 -0.13723 c0.5504 0 1.0184 0.452 1.0184 1.0196 l0.004414 8.9796 c0 0.5632 -0.4568 1.02 -1.02 1.02 s-1.02 -0.4568 -1.02 -1.02 l0 -7.2124 l-1.844 1.066 l0 8.3916 c0 0.5632 -0.4568 1.02 -1.02 1.02 z M72.7192 40 c-0.6728 0 -1.0188 -0.59208 -1.0188 -1.0249 l0.0048048 -15.711 c0 -0.5632 0.4564 -1.02 1.0196 -1.02 s1.02 0.4568 1.02 1.02 l0 13.947 l2.3388 -1.352 c0.15359 -0.092384 0.3332 -0.14559 0.5252 -0.14559 c0.5632 0 1.02 0.4568 1.02 1.02 c0 0.38398 -0.21558 0.7132 -0.52596 0.89244 l-3.8716 2.2364 c-0.15559 0.089608 -0.33238 0.13723 -0.512 0.13723 z M76.61080000000001 33.2644 c-0.5632 0 -1.02 -0.4568 -1.02 -1.02 l0 -11.225 c0 -0.5632 0.4568 -1.02 1.02 -1.02 s1.02 0.4568 1.02 1.02 l0 11.225 c0 0.5632 -0.4568 1.02 -1.02 1.02 z M72.72120000000001 19.796 l0.0020312 0.0007422 c-0.6728 0 -1.0208 -0.5924 -1.0208 -1.0252 l0.0048048 -4.2644 c0.00078124 -0.5624 0.21438 -0.934 0.70116 -1.2156 l3.6772 -2.1256 c0.15359 -0.092384 0.3332 -0.14559 0.5252 -0.14559 c0.5632 0 1.02 0.4568 1.02 1.02 c0 0.38398 -0.21238 0.7184 -0.52596 0.8924 l-3.358 1.9408 l0 2.1336 l2.3388 -1.352 c0.15359 -0.092384 0.3332 -0.14559 0.5252 -0.14559 c0.5632 0 1.02 0.4568 1.02 1.02 c0 0.38398 -0.21558 0.7132 -0.52596 0.8928 l-3.8716 2.2364 c-0.15559 0.089608 -0.33238 0.13723 -0.512 0.13723 z M84.56400000000001 39.963594 l0.0037109 0.0011719 c-0.22922 0 -0.45844 -0.070392 -0.70204 -0.21117 l-3.5008 -2.0236 c-0.4868 -0.2816 -0.7012 -0.6532 -0.7012 -1.2156 l0 -8.5368 c0 -0.5624 0.21442 -0.934 0.7012 -1.2156 l7.0664 -4.0844 l0 -8.17 c0 -0.5624 0.21442 -0.934 0.7012 -1.2156 l3.6772 -2.1256 c0.15359 -0.092384 0.3332 -0.14559 0.5252 -0.14559 c0.5632 0 1.02 0.4568 1.02 1.02 c0 0.38398 -0.21238 0.7184 -0.52596 0.8924 l-3.358 1.9408 l0 8.17 c0 0.5624 -0.21442 0.934 -0.7012 1.2156 l-7.0664 4.0844 l0 7.8028 l2.864 1.6556 l6.7476 -3.9004 l0 -2.1336 l-6.2416 3.6064 c-0.15559 0.089608 -0.33238 0.13723 -0.512 0.13723 c-0.6728 0 -1.0208 -0.5924 -1.0208 -1.0252 l0.0048048 -4.2644 c0.00078124 -0.5624 0.21438 -0.934 0.70116 -1.2156 l3.6772 -2.1256 c0.15359 -0.092384 0.3332 -0.14559 0.5252 -0.14559 c0.5632 0 1.02 0.4568 1.02 1.02 c0 0.38398 -0.21238 0.7184 -0.52596 0.8924 l-3.358 1.9408 l0 2.1336 l6.2324 -3.6044 c0.15559 -0.089608 0.33238 -0.13723 0.512 -0.13723 c0.5504 0 1.0184 0.452 1.0184 1.0196 l0.004414 4.268 c0.00039062 0.5624 -0.2148 0.934 -0.7016 1.2116 l-7.3844 4.2724 c-0.24359 0.14078 -0.4728 0.21117 -0.70204 0.21117 z M92.33500000000001 40.0011719 c-0.5632 0 -1.0188 -0.4576 -1.0188 -1.0208 c0 -0.38398 0.21238 -0.7184 0.52596 -0.8924 l3.358 -1.9408 l0 -20.094 l-1.844 1.066 l0 8.3916 c0 0.5632 -0.4568 1.02 -1.02 1.02 s-1.02 -0.4568 -1.02 -1.02 l0 -8.7584 c0 -0.5624 0.21442 -0.934 0.7012 -1.2156 l3.6868 -2.1332 c0.15559 -0.089608 0.33238 -0.13723 0.512 -0.13723 c0.5504 0 1.0184 0.452 1.0184 1.0196 l0.004414 22.228 c0 0.5624 -0.21442 0.934 -0.7016 1.2156 l-3.6772 2.1256 c-0.15359 0.092384 -0.3332 0.14559 -0.5252 0.14559 z" fill="#DC143C"></path></g></svg>